<svg height="512" viewBox="0 0 44 60" width="512" xmlns="http://www.w3.org/2000/svg"><g id="Page-1" fill="none" fill-rule="evenodd"><g id="030---Princess" transform="translate(0 -1)"><g id="Color" transform="translate(1 1)"><path id="Shape" d="m9 28c-.00160936 1.245501.19069332 2.4836603.57 3.67-.49486256.2174468-1.02947059.3298167-1.57.33-2.209139 0-4-1.790861-4-4s1.790861-4 4-4c.54052941.0001833 1.07513744.1125532 1.57.33h.01c-.38758507 1.1846295-.58338681 2.423582-.58 3.67z" fill="#cad9fc" fill-rule="nonzero"/><path id="Shape" d="m38 28c-.0060433 2.2066309-1.7933691 3.9939567-4 4-.5405294-.0001833-1.0751374-.1125532-1.57-.33.7599884-2.3876494.7599884-4.9523506 0-7.34.4948626-.2174468 1.0294706-.3298167 1.57-.33 2.2068582.0054966 3.9945034 1.7931418 4 4z" fill="#cad9fc" fill-rule="nonzero"/><path id="Shape" d="m33 22c-.5514847-.000961-1.1024357-.034352-1.65-.1" stroke="#000" stroke-linecap="round" stroke-linejoin="round" stroke-width="2"/><path id="Shape" d="m10.89 21.55c-.6519562-.0621419-1.29972609-.1623124-1.94-.3" stroke="#000" stroke-linecap="round" stroke-linejoin="round" stroke-width="2"/><path id="Shape" d="m15 26v1" stroke="#000" stroke-linecap="round" stroke-linejoin="round" stroke-width="2"/><path id="Shape" d="m27 26v1" stroke="#000" stroke-linecap="round" stroke-linejoin="round" stroke-width="2"/><g fill-rule="nonzero"><path id="Shape" d="m37 17c-.29 3.5-.41 6.07-.43 7.94-.7177457-.6087773-1.6288494-.9420214-2.57-.94-.5405294.0001833-1.0751374.1125532-1.57.33-.2650848-.8489387-.6274941-1.6643595-1.08-2.43-5.67-.7-7.35-4.9-7.35-4.9-3.4436088 3.4427287-8.2740043 5.1191818-13.11 4.55-.5580284.8644665-.99856013 1.7993354-1.31 2.78h-.01c-.49486256-.2174468-1.02947059-.3298167-1.57-.33-.94115064-.0020214-1.85225432.3312227-2.57.94-.02-1.87-.14-4.44-.43-7.94-.41606986-3.3885961 1.11172274-6.722665 3.95-8.62l1.05 2.62s3-2 11-2 11 2 11 2l1.05-2.62c2.8382773 1.897335 4.3660699 5.2314039 3.95 8.62z" fill="#a4c2f7"/><path id="Shape" d="m5.413 24.044c.008.313.014.615.017.9.31892035-.2654702.67720613-.4796994 1.062-.635-.34517642-.1393757-.70852946-.2286144-1.079-.265z" fill="#cad9fc"/><path id="Shape" d="m32.4 24.254c.009.026.021.05.029.076.025-.011.053-.015.078-.025-.036-.015-.069-.037-.107-.051z" fill="#cad9fc"/><path id="Shape" d="m33.05 8.38-.833 2.079c1.416174 1.8685397 2.0550477 4.2122708 1.783 6.541-.246 2.974-.369 5.271-.413 7.044.1367484-.022283.2746264-.0369722.413-.044.9411506-.0020214 1.8522543.3312227 2.57.94.02-1.87.14-4.44.43-7.94.4160699-3.3885961-1.1117227-6.722665-3.95-8.62z" fill="#7facfa"/><path id="Shape" d="m18 39.62v3.38c-3.3637995.8501059-6.5706653 2.2307461-9.5 4.09-4.83 1.05-8.5-4.09-8.5-4.09 4.76 0 5.75-8.2 5.95-11.57.61875914.3729453 1.32753821.5700204 2.05.57.54052941-.0001833 1.07513744-.1125532 1.57-.33 1.2596201 3.9210028 4.441965 6.9221465 8.43 7.95z" fill="#a4c2f7"/><path id="Shape" d="m33 28c.0086288 5.4751536-3.6966672 10.2591024-9 11.62-1.9679105.5066712-4.0320895.5066712-6 0-5.3033328-1.3608976-9.00862876-6.1448464-9-11.62.00323727-2.2860676.65892102-4.5237185 1.89-6.45 4.8359957.5691818 9.6663912-1.1072713 13.11-4.55 0 0 1.68 4.2 7.35 4.9.4525059.7656405.8149152 1.5810613 1.08 2.43.3786267 1.1865.5709128 2.4245524.57 3.67z" fill="#e8edfc"/><path id="Shape" d="m32.43 24.33c-.2650848-.8489387-.6274941-1.6643595-1.08-2.43-5.67-.7-7.35-4.9-7.35-4.9-.6012916.6002823-1.2485975 1.1526322-1.936 1.652 1.5949371 1.8567582 3.8487891 3.0213321 6.286 3.248.4525059.7656405.8149152 1.5810613 1.08 2.43 1.0105615 3.1461685.679016 6.5698215-.9164545 9.4636225-1.5954704 2.8938011-4.3136444 5.0016086-7.5135455 5.8263775-.4933135.1275621-.9943586.2230947-1.5.286.4975792.0622781.9985386.0936715 1.5.094 1.0121192.0018825 2.0203151-.1258223 3-.38 3.1969714-.8294258 5.9116895-2.9380045 7.5063534-5.8303427 1.5946639-2.8923383 1.9287063-6.3134805.9236466-9.4596573z" fill="#cad9fc"/><path id="Shape" d="m42 43s-3.67 5.14-8.5 4.09c-2.9293347-1.8592539-6.1362005-3.2398941-9.5-4.09v-3.38c3.988035-1.0278535 7.1703799-4.0289972 8.43-7.95.4948626.2174468 1.0294706.3298167 1.57.33.7224618.0000204 1.4312409-.1970547 2.05-.57.2 3.37 1.19 11.57 5.95 11.57z" fill="#a4c2f7"/><path id="Shape" d="m35.2 3-2.15 5.38-1.05 2.62s-3-2-11-2-11 2-11 2l-1.05-2.62-2.15-5.38c-.14595907-.36265493-.06721112-.77711035.20158606-1.06096017.26879718-.28384983.67835152-.38504162 1.04841394-.25903983l5.34 1.78c1.0258885.3484926 2.1497263.26176557 3.11-.24l3.95-2.05c.3305929-.23001792.7694071-.23001792 1.1 0l3.95 2.05c.9602737.50176557 2.0841115.5884926 3.11.24l5.34-1.78c.3700624-.12600179.7796168-.02481 1.0484139.25903983.2687972.28384982.3475452.69830524.2015861 1.06096017z" fill="#e8edfc"/><path id="Shape" d="m33.95 1.68-1.75.585c.0967393.23545051.0967393.49954949 0 .735l-2.15 5.38-.64 1.6c.9065303.2180149 1.7782499.5613176 2.59 1.02l1.05-2.62 2.15-5.38c.1459591-.36265493.0672111-.77711035-.2015861-1.06096017-.2687971-.28384983-.6783515-.38504162-1.0484139-.25903983z" fill="#cad9fc"/><path id="Shape" d="m24 39.62v3.38c0 1.6568542-1.3431458 3-3 3s-3-1.3431458-3-3v-3.38c1.9679105.5066712 4.0320895.5066712 6 0z" fill="#cad9fc"/><path id="Shape" d="m38 54.4v2.6c-.0032948 1.1032019-.8967981 1.9967052-2 2h-30c-1.10320187-.0032948-1.9967052-.8967981-2-2v-2.6c-.00081748-2.5057602 1.17247363-4.8671473 3.17-6.38.44-.33.88-.64 1.33-.93 2.9293347-1.8592539 6.1362005-3.2398941 9.5-4.09 0 1.6568542 1.3431458 3 3 3s3-1.3431458 3-3c3.3637995.8501059 6.5706653 2.2307461 9.5 4.09.45.29.89.6 1.33.93 1.9975264 1.5128527 3.1708175 3.8742398 3.17 6.38z" fill="#e8edfc"/><path id="Shape" d="m34.83 48.02c-.44-.33-.88-.64-1.33-.93-2.9293347-1.8592539-6.1362005-3.2398941-9.5-4.09-.0040933.2933811-.0516086.584539-.141.864 2.331413.813838 4.5600967 1.8964662 6.641 3.226.45.29.89.6 1.33.93 1.9975264 1.5128527 3.1708175 3.8742398 3.17 6.38v2.6c-.0032948 1.1032019-.8967981 1.9967052-2 2h3c1.1032019-.0032948 1.9967052-.8967981 2-2v-2.6c.0008175-2.5057602-1.1724736-4.8671473-3.17-6.38z" fill="#cad9fc"/><path id="Shape" d="m16 31c0 2.7614237 2.2385763 5 5 5s5-2.2385763 5-5z" fill="#e8edfc"/><path id="Shape" d="m23 31c-.0055366 2.1764172-1.4223853 4.097664-3.5 4.746 1.5162558.5066858 3.1840091.247652 4.4751436-.6950748 1.2911344-.9427268 2.0457384-2.4523865 2.0248564-4.0509252z" fill="#cad9fc"/></g></g><g fill-rule="nonzero"><g id="Color_copy" fill="#fff" transform="translate(1 2)"><path id="Shape" d="m7 56v-2.6c-.00081748-2.5057602 1.17247363-4.8671473 3.17-6.38.44-.33.88-.64 1.33-.93-4.83 1.05-8.5-4.09-8.5-4.09 4.76 0 5.75-8.2 5.95-11.57-1.11121839-.662002-1.83281664-1.8213701-1.93612225-3.1107036-.10330562-1.2893335.42448716-2.5488069 1.41612225-3.3792964-.03-2.486-.23-5.472-.43-7.94-.41606986-3.3885961 1.11172274-6.72266503 3.95-8.62l-2.15-5.38c-.09673934-.23545051-.09673934-.49954949 0-.735l-1.75-.585c-.37006242-.12600179-.77961676-.02481-1.04841394.25903983-.26879718.28384982-.34754513.69830524-.20158606 1.06096017l2.15 5.38c-2.83827726 1.89733497-4.36606986 5.2314039-3.95 8.62.2 2.468.4 5.454.43 7.94-.99163509.8304895-1.51942787 2.0899629-1.41612225 3.3792964.10330561 1.2893335.82490386 2.4487016 1.93612225 3.1107036-.2 3.37-1.19 11.57-5.95 11.57 0 0 3.67 5.14 8.5 4.09-.45.29-.89.6-1.33.93-1.99752637 1.5128527-3.17081748 3.8742398-3.17 6.38v2.6c.0032948 1.1032019.89679813 1.9967052 2 2h3c-1.10320187-.0032948-1.9967052-.8967981-2-2z"/></g><g id="Outline"><path id="Shape" d="m6.31 40.628-1.844-.775c.88531563-2.4004481 1.38680056-4.9254214 1.486-7.482l2 .118c-.1105552 2.7831137-.66486886 5.5307134-1.642 8.139z" fill="#fff"/><g fill="#428dff"><path id="Shape" d="m6.276 37.379c.35526997.0747227.72313156-.0489698.96108033-.3231606.23794878-.2741908.3086038-.6558056.18459431-.9970121-.1240095-.3412065-.42320205-.5884023-.78167464-.6458273-.53601175-.0858656-1.0426385.2715833-1.14146544.8053574-.09882693.533774.24624247 1.0489124.77746544 1.1606426z"/><path id="Shape" d="m17 28v-1c0-.5522847-.4477153-1-1-1s-1 .4477153-1 1v1c0 .5522847.4477153 1 1 1s1-.4477153 1-1z"/><path id="Shape" d="m28 29c.5522847 0 1-.4477153 1-1v-1c0-.5522847-.4477153-1-1-1s-1 .4477153-1 1v1c0 .5522847.4477153 1 1 1z"/><path id="Shape" d="m28 32c0-.5522847-.4477153-1-1-1h-10c-.5522847 0-1 .4477153-1 1 0 3.3137085 2.6862915 6 6 6s6-2.6862915 6-6zm-9.873 1h7.746c-.4559751 1.7661054-2.0489821 3.0000645-3.873 3.0000645s-3.4170249-1.2339591-3.873-3.0000645z"/><path id="Shape" d="m43 43c-3.757 0-4.691-7.145-4.916-10.095 1.1174009-.8659805 1.8113179-2.1683236 1.9068512-3.5787776.0955334-1.410454-.41643-2.7944742-1.4068512-3.8032224.035-2 .172-4.491.417-7.441.417154-3.4544244-1.0034748-6.8753136-3.745-9.018l1.876-4.69c.290903-.7241326.1340516-1.55133227-.401744-2.11870841-.5357956-.56737615-1.3526675-.77129257-2.092256-.52229159l-5.347 1.783c-.7708255.25521388-1.6120304.18850883-2.333-.185l-3.901-2.031c-.6464765-.40499232-1.4675235-.40499232-2.114 0l-3.9 2.029c-.7212551.3725095-1.5620501.43918206-2.333.185l-5.349-1.781c-.73894012-.24627948-1.55364221-.04115234-2.08785464.52568375-.53421244.5668361-.69074343 1.39225398-.40114536 2.11531625l1.876 4.69c-2.74297462 2.14221-4.16482551 5.5636809-3.748 9.019.245 2.95.382 5.436.417 7.44-1.40468433 1.4378808-1.80946074 3.5782118-1.0268663 5.4297477s2.59973961 3.0527203 4.6098663 3.0472523c.32452689-.001077.6481342-.0345768.966-.1 1.4529024 3.5464286 4.3904248 6.2755383 8.034 7.464v1.859c-3.1276464.8680878-6.112756 2.1854839-8.862 3.911-2.674.5-4.994-1.259-6.272-2.527.59250609-.2527877 1.12965311-.6193795 1.581-1.079.80044503-.8388656 1.43283461-1.8232616 1.863-2.9.11319348-.2497488.11587099-.5356416.00737497-.7874665-.10849602-.251825-.31811426-.4462525-.57737497-.5355335-.50243162-.1729222-1.05399642.0643286-1.274.548-.32842034.8308667-.80935705 1.5929716-1.418 2.247-.53337281.5638946-1.27190071.888443-2.048.9v.019c-.20711462-.007627-.41118185.0516297-.582.169-.44767139.3213652-.55097812.9443361-.231 1.393.131.185 2.669 3.668 6.433 4.48-1.67125523 1.6873728-2.61224969 3.9640766-2.62 6.339v2.6c0 1.6568542 1.34314575 3 3 3h30c1.6568542 0 3-1.3431458 3-3v-2.6c-.0074881-2.37527-.9485023-4.6523806-2.62-6.34 3.763-.813 6.3-4.3 6.433-4.48.2169343-.3046857.2457045-.7049619.0745741-1.03754-.1711304-.3325782-.5135507-.5418557-.8875741-.54246zm-8.344-16.964c.1138234-.0190174.2287055-.03104.344-.036 1.6568542 0 3 1.3431458 3 3s-1.3431458 3-3 3c-.1186664-.0047971-.2369063-.0171555-.354-.037.2320451-.9706789.3508373-1.9649757.354-2.963-.0019847-.997843-.1173922-1.9922266-.344-2.964zm-20.58-20.623c1.284721.42406489 2.6860712.31305259 3.888-.308l3.942-2.05.094-.055.094.055 3.942 2.05c1.2016434.62205202 2.6034035.7330968 3.888.308l5.347-1.783-2.8 7c-1.541-.646-4.825-1.63-10.471-1.63s-8.93.984-10.472 1.627l-2.8-7zm-4.548 5.6.543 1.36c.1131763.2768256.3436519.4889446.6288986.5788089.2852468.0898643.5956882.0481562.8471014-.1138089.029-.02 2.953-1.838 10.453-1.838s10.424 1.818 10.445 1.832c.1643469.1095861.3574677.1680443.555.168.408945.0003137.7768725-.2484037.929-.628l.543-1.36c1.9213115 1.7496561 2.8654183 4.328397 2.528 6.905-.2 2.426-.332 4.559-.394 6.372-.5156162-.1846771-1.0583493-.282342-1.606-.289-.3198433.0020607-.6387096.0355551-.952.1-.014-.033-.025-.067-.038-.1.5522847-.0027614.9977614-.4527153.995-1.005s-.4527153-.9977614-1.005-.995c-6.19 0-8-4.2-8.071-4.372-.1252729-.3117938-.3987636-.5398279-.728-.607-.3292392-.0699158-.6714227.0325885-.908.272-3.7153828 3.6648284-9.0517911 5.1661062-14.133 3.976-.5395822-.1181889-1.07281106.2234178-1.191.763s.2234178 1.0728111.763 1.191c.175.038.369.077.576.115-.122.2506667-.2353333.5046667-.34.762-.85965706-.1809549-1.75294236-.1154404-2.577.189-.062-1.813-.193-3.945-.394-6.371-.33683939-2.5774289.60842029-5.1566322 2.531-6.906zm-.528 20.987c-1.65685425 0-3-1.3431458-3-3s1.34314575-3 3-3c.11628536.0050111.23216251.017033.347.036-.46516701 1.9485666-.46276836 3.9795376.007 5.927-.1170937.0198445-.23533356.0322029-.354.037zm2-3c.0046949-1.8957072.5048989-3.7572521 1.451-5.4 4.4728528.3638956 8.9049506-1.080093 12.305-4.009 1.6237695 2.3101908 4.1369146 3.8390962 6.935 4.219 2.1691365 4.0392131 1.6054936 9.0002357-1.4144852 12.4498913-3.0199787 3.4496557-7.8628894 4.6644209-12.1534846 3.0485035-4.2905952-1.6159173-7.1289745-5.7235981-7.1230302-10.3083948zm11 13c.6700413-.0052606 1.3386835-.0620951 2-.17v2.17c0 1.1045695-.8954305 2-2 2s-2-.8954305-2-2v-2.17c.6613165.1079049 1.3299587.1647394 2 .17zm16 16c0 .5522847-.4477153 1-1 1h-5v-5c0-.5522847-.4477153-1-1-1s-1 .4477153-1 1v5h-16v-5c0-.5522847-.4477153-1-1-1s-1 .4477153-1 1v5h-5c-.55228475 0-1-.4477153-1-1v-2.6c.00250964-2.1925841 1.02802588-4.2584095 2.773-5.586 2.8612936-2.0569751 6.056689-3.6037562 9.445-4.572.5285241 1.6423991 2.0566558 2.7559523 3.782 2.7559523s3.2534759-1.1135532 3.782-2.7559523c3.388311.9682438 6.5837064 2.5150249 9.445 4.572 1.7449741 1.3275905 2.7704904 3.3934159 2.773 5.586zm-3.144-10.871c-2.7477614-1.7230684-5.7307752-3.0387473-8.856-3.906v-1.859c3.6435752-1.1884617 6.5810976-3.9175714 8.034-7.464.3178658.0654232.6414731.098923.966.1.3908425-.0040024.7798543-.0540134 1.159-.149.351 3.595 1.463 9.274 4.965 10.775-1.278 1.274-3.591 3.008-6.268 2.503z"/><path id="Shape" d="m22 8c.5522847 0 1-.44771525 1-1v-1c0-.55228475-.4477153-1-1-1s-1 .44771525-1 1v1c0 .55228475.4477153 1 1 1z"/><circle id="Oval" cx="13" cy="7" r="1"/><circle id="Oval" cx="31" cy="7" r="1"/><circle id="Oval" cx="17" cy="49" r="1"/><circle id="Oval" cx="20" cy="51" r="1"/><circle id="Oval" cx="27" cy="49" r="1"/><circle id="Oval" cx="24" cy="51" r="1"/></g></g></g></g></g></svg>