<svg height="512" viewBox="0 0 42 58" width="512" xmlns="http://www.w3.org/2000/svg"><g id="Page-1" fill="none" fill-rule="evenodd"><g id="030---Princess" fill-rule="nonzero" transform="translate(0 -1)"><path id="Shape" d="m42 43c-4.76 0-5.75-8.2-5.95-11.57 1.1119844-.6613942 1.8342415-1.8209075 1.9375748-3.1105872.1033334-1.2896797-.4250867-2.5494014-1.4175748-3.3794128.02-1.87.14-4.44.43-7.94.4160699-3.3885961-1.1117227-6.722665-3.95-8.62l2.15-5.38c.1459591-.36265493.0672111-.77711035-.2015861-1.06096017-.2687971-.28384983-.6783515-.38504162-1.0484139-.25903983l-5.34 1.78c-1.0258885.3484926-2.1497263.26176557-3.11-.24l-3.95-2.05c-.3305929-.23001792-.7694071-.23001792-1.1 0l-3.95 2.05c-.9602737.50176557-2.0841115.5884926-3.11.24l-5.34-1.78c-.37006242-.12600179-.77961676-.02481-1.04841394.25903983-.26879718.28384982-.34754513.69830524-.20158606 1.06096017l2.15 5.38c-2.83827726 1.897335-4.36606986 5.2314039-3.95 8.62.29 3.5.41 6.07.43 7.94-.99248806.8300114-1.52090819 2.0897331-1.41757484 3.3794128s.82559048 2.449193 1.93757484 3.1105872c-.2 3.37-1.19 11.57-5.95 11.57 0 0 3.67 5.14 8.5 4.09-.45.29-.89.6-1.33.93-1.99752637 1.5128527-3.17081748 3.8742398-3.17 6.38v2.6c.0032948 1.1032019.89679813 1.9967052 2 2h30c1.1032019-.0032948 1.9967052-.8967981 2-2v-2.6c.0008175-2.5057602-1.1724736-4.8671473-3.17-6.38-.44-.33-.88-.64-1.33-.93 4.83 1.05 8.5-4.09 8.5-4.09z" fill="#f29c1f"/><path id="Shape" d="m38 28c-.0060433 2.2066309-1.7933691 3.9939567-4 4-.5405294-.0001833-1.0751374-.1125532-1.57-.33.7599884-2.3876494.7599884-4.9523506 0-7.34.4948626-.2174468 1.0294706-.3298167 1.57-.33 2.2068582.0054966 3.9945034 1.7931418 4 4z" fill="#f9c795"/><path id="Shape" d="m9 28c-.00160936 1.245501.19069332 2.4836603.57 3.67-.49486256.2174468-1.02947059.3298167-1.57.33-2.209139 0-4-1.790861-4-4s1.790861-4 4-4c.54052941.0001833 1.07513744.1125532 1.57.33h.01c-.38758507 1.1846295-.58338681 2.423582-.58 3.67z" fill="#f9c795"/><path id="Shape" d="m33 28c.0086288 5.4751536-3.6966672 10.2591024-9 11.62-1.9679105.5066712-4.0320895.5066712-6 0-5.3033328-1.3608976-9.00862876-6.1448464-9-11.62.00323727-2.2860676.65892102-4.5237185 1.89-6.45 4.8359957.5691818 9.6663912-1.1072713 13.11-4.55 0 0 1.68 4.2 7.35 4.9.4525059.7656405.8149152 1.5810613 1.08 2.43.3786267 1.1865.5709128 2.4245524.57 3.67z" fill="#fdd7ad"/><path id="Shape" d="m35.2 3-2.15 5.38-.65 1.62c-.0975919.2469551-.2899373.4445956-.5341517.5488563-.2442144.1042608-.5199927.1064731-.7658483.0061437-1.4-.591-4.547-1.555-10.1-1.555s-8.7.964-10.1 1.553c-.2456023.1004385-.5211677.0985094-.7653398-.0053577-.2441721-.103867-.43667982-.301049-.5346602-.5476423l-.65-1.62-2.15-5.38c-.14595907-.36265493-.06721112-.77711035.20158606-1.06096017.26879718-.28384983.67835152-.38504162 1.04841394-.25903983l5.34 1.78c1.0258885.3484926 2.1497263.26176557 3.11-.24l3.95-2.05c.3305929-.23001792.7694071-.23001792 1.1 0l3.95 2.05c.9602737.50176557 2.0841115.5884926 3.11.24l5.34-1.78c.3700624-.12600179.7796168-.02481 1.0484139.25903983.2687972.28384982.3475452.69830524.2015861 1.06096017z" fill="#f3d55b"/><path id="Shape" d="m21 7c-.5522847 0-1-.44771525-1-1v-1c0-.55228475.4477153-1 1-1s1 .44771525 1 1v1c0 .55228475-.4477153 1-1 1z" fill="#e64c3c"/><circle id="Oval" cx="12" cy="6" fill="#4fba6f" r="1"/><circle id="Oval" cx="30" cy="6" fill="#4fba6f" r="1"/><path id="Shape" d="m24 43c3.3637995.8501059 6.5706653 2.2307461 9.5 4.09.45.29.89.6 1.33.93 1.9975264 1.5128527 3.1708175 3.8742398 3.17 6.38v2.6c-.0032948 1.1032019-.8967981 1.9967052-2 2h-30c-1.10320187-.0032948-1.9967052-.8967981-2-2v-2.6c-.00081748-2.5057602 1.17247363-4.8671473 3.17-6.38.44-.33.88-.64 1.33-.93 2.9293347-1.8592539 6.1362005-3.2398941 9.5-4.09z" fill="#e64c3c"/><g fill="#f9eab0"><circle id="Oval" cx="16" cy="48" r="1"/><circle id="Oval" cx="19" cy="50" r="1"/><circle id="Oval" cx="26" cy="48" r="1"/><circle id="Oval" cx="23" cy="50" r="1"/></g><path id="Shape" d="m13 53v6h-2v-6c0-.5522847.4477153-1 1-1s1 .4477153 1 1z" fill="#c03a2b"/><path id="Shape" d="m31 53v6h-2v-6c0-.5522847.4477153-1 1-1s1 .4477153 1 1z" fill="#c03a2b"/><path id="Shape" d="m15 28c-.5522847 0-1-.4477153-1-1v-1c0-.5522847.4477153-1 1-1s1 .4477153 1 1v1c0 .5522847-.4477153 1-1 1z" fill="#464f5d"/><path id="Shape" d="m27 28c-.5522847 0-1-.4477153-1-1v-1c0-.5522847.4477153-1 1-1s1 .4477153 1 1v1c0 .5522847-.4477153 1-1 1z" fill="#464f5d"/><path id="Shape" d="m16 31c0 2.7614237 2.2385763 5 5 5s5-2.2385763 5-5z" fill="#fff"/><path id="Shape" d="m24 39.62v3.38c0 1.6568542-1.3431458 3-3 3s-3-1.3431458-3-3v-3.38c1.9679105.5066712 4.0320895.5066712 6 0z" fill="#f9c795"/></g></g></svg>